<svg width="84" height="12" viewBox="0 0 84 12" fill="none" xmlns="http://www.w3.org/2000/svg">
<path d="M0.078125 7.25994V5.75994L6.07812 3.1179V4.84375L1.97017 6.4929L2.02557 6.40341V6.61648L1.97017 6.52699L6.07812 8.17614V9.90199L0.078125 7.25994ZM76.299 0.863636L73.4865 11.3125H71.9226L74.7351 0.863636H76.299ZM83.5273 7.25994L77.5273 9.90199V8.17614L81.6353 6.52699L81.5799 6.61648V6.40341L81.6353 6.4929L77.5273 4.84375V3.1179L83.5273 5.75994V7.25994Z" fill="#184EFF"/>
<path d="M11.0563 1.576C11.9443 1.576 12.7203 1.752 13.3843 2.104C14.0483 2.456 14.5603 2.952 14.9203 3.592C15.2883 4.224 15.4723 4.956 15.4723 5.788C15.4723 6.612 15.2883 7.344 14.9203 7.984C14.5603 8.624 14.0443 9.12 13.3723 9.472C12.7083 9.824 11.9363 10 11.0563 10H7.90025V1.576H11.0563ZM10.9243 8.224C11.7003 8.224 12.3043 8.012 12.7363 7.588C13.1683 7.164 13.3843 6.564 13.3843 5.788C13.3843 5.012 13.1683 4.408 12.7363 3.976C12.3043 3.544 11.7003 3.328 10.9243 3.328H9.95225V8.224H10.9243ZM18.671 3.22V4.924H21.419V6.508H18.671V8.356H21.779V10H16.619V1.576H21.779V3.22H18.671ZM31.0192 1.576L28.0312 10H25.4632L22.4752 1.576H24.6592L26.7472 7.936L28.8472 1.576H31.0192ZM39.5198 5.68C40.0078 5.784 40.3998 6.028 40.6958 6.412C40.9918 6.788 41.1398 7.22 41.1398 7.708C41.1398 8.412 40.8918 8.972 40.3958 9.388C39.9078 9.796 39.2238 10 38.3438 10H34.4198V1.576H38.2118C39.0678 1.576 39.7358 1.772 40.2158 2.164C40.7038 2.556 40.9478 3.088 40.9478 3.76C40.9478 4.256 40.8158 4.668 40.5518 4.996C40.2958 5.324 39.9518 5.552 39.5198 5.68ZM36.4718 4.984H37.8158C38.1518 4.984 38.4078 4.912 38.5838 4.768C38.7678 4.616 38.8598 4.396 38.8598 4.108C38.8598 3.82 38.7678 3.6 38.5838 3.448C38.4078 3.296 38.1518 3.22 37.8158 3.22H36.4718V4.984ZM37.9838 8.344C38.3278 8.344 38.5918 8.268 38.7758 8.116C38.9678 7.956 39.0638 7.728 39.0638 7.432C39.0638 7.136 38.9638 6.904 38.7638 6.736C38.5718 6.568 38.3038 6.484 37.9598 6.484H36.4718V8.344H37.9838ZM49.5539 1.576L46.6379 7.216V10H44.5859V7.216L41.6699 1.576H43.9979L45.6299 5.104L47.2499 1.576H49.5539ZM58.5157 4.24C58.3637 3.96 58.1437 3.748 57.8557 3.604C57.5757 3.452 57.2437 3.376 56.8597 3.376C56.1957 3.376 55.6637 3.596 55.2637 4.036C54.8637 4.468 54.6637 5.048 54.6637 5.776C54.6637 6.552 54.8717 7.16 55.2877 7.6C55.7117 8.032 56.2917 8.248 57.0277 8.248C57.5317 8.248 57.9557 8.12 58.2997 7.864C58.6517 7.608 58.9077 7.24 59.0677 6.76H56.4637V5.248H60.9277V7.156C60.7757 7.668 60.5157 8.144 60.1477 8.584C59.7877 9.024 59.3277 9.38 58.7677 9.652C58.2077 9.924 57.5757 10.06 56.8717 10.06C56.0397 10.06 55.2957 9.88 54.6397 9.52C53.9917 9.152 53.4837 8.644 53.1157 7.996C52.7557 7.348 52.5757 6.608 52.5757 5.776C52.5757 4.944 52.7557 4.204 53.1157 3.556C53.4837 2.9 53.9917 2.392 54.6397 2.032C55.2877 1.664 56.0277 1.48 56.8597 1.48C57.8677 1.48 58.7157 1.724 59.4037 2.212C60.0997 2.7 60.5597 3.376 60.7837 4.24H58.5157ZM67.1643 5.68C67.6523 5.784 68.0443 6.028 68.3403 6.412C68.6363 6.788 68.7843 7.22 68.7843 7.708C68.7843 8.412 68.5363 8.972 68.0403 9.388C67.5523 9.796 66.8683 10 65.9883 10H62.0643V1.576H65.8563C66.7123 1.576 67.3803 1.772 67.8603 2.164C68.3483 2.556 68.5923 3.088 68.5923 3.76C68.5923 4.256 68.4603 4.668 68.1963 4.996C67.9403 5.324 67.5963 5.552 67.1643 5.68ZM64.1163 4.984H65.4603C65.7963 4.984 66.0523 4.912 66.2283 4.768C66.4123 4.616 66.5043 4.396 66.5043 4.108C66.5043 3.82 66.4123 3.6 66.2283 3.448C66.0523 3.296 65.7963 3.22 65.4603 3.22H64.1163V4.984ZM65.6283 8.344C65.9723 8.344 66.2363 8.268 66.4203 8.116C66.6123 7.956 66.7083 7.728 66.7083 7.432C66.7083 7.136 66.6083 6.904 66.4083 6.736C66.2163 6.568 65.9483 6.484 65.6043 6.484H64.1163V8.344H65.6283Z" fill="white"/>
</svg>
