<svg width="30" height="31" viewBox="0 0 30 31" fill="none" xmlns="http://www.w3.org/2000/svg">
<g clip-path="url(#clip0_7_8)">
<path fill-rule="evenodd" clip-rule="evenodd" d="M4.88582 1.36086C5.75396 0.48929 6.92889 0 8.15366 0C9.37843 0 10.5534 0.48929 11.4215 1.36086L11.4238 1.3632L17.2656 7.25652C17.7961 7.79174 17.7961 8.65952 17.2656 9.19475C16.735 9.72998 15.8748 9.72998 15.3443 9.19475L9.50487 3.30378C9.50519 3.30409 9.50456 3.30346 9.50487 3.30378C9.146 2.94398 8.65964 2.74108 8.15366 2.74108C7.64768 2.74108 7.16228 2.94303 6.80341 3.30281C6.80308 3.30313 6.80276 3.30345 6.80244 3.30378L3.27487 6.86249C3.27455 6.86281 3.27423 6.86314 3.27391 6.86346C2.91728 7.2255 2.71709 7.71519 2.71709 8.22563C2.71709 8.73609 2.91729 9.22579 3.27393 9.58783C3.27425 9.58814 3.27362 9.58751 3.27393 9.58783L9.11429 15.4797C9.64484 16.015 9.64484 16.8827 9.11429 17.418C8.58375 17.9532 7.72357 17.9532 7.19302 17.418L1.35128 11.5247L1.34895 11.5223C0.485009 10.6465 0 9.46121 0 8.22563C0 6.99005 0.485009 5.80475 1.34895 4.92895L1.35127 4.9266L4.88582 1.36086Z" fill="#184EFF"/>
<path fill-rule="evenodd" clip-rule="evenodd" d="M13.1898 3.14489C13.7204 3.68012 13.7204 4.5479 13.1898 5.08313L10.4727 7.8242C9.9422 8.35943 9.08202 8.35943 8.55147 7.8242C8.02093 7.28897 8.02093 6.4212 8.55147 5.88597L11.2686 3.14489C11.7991 2.60967 12.6593 2.60967 13.1898 3.14489Z" fill="#184EFF"/>
<path fill-rule="evenodd" clip-rule="evenodd" d="M26.7753 16.8503C27.3059 17.3855 27.3059 18.2533 26.7753 18.7885L24.0582 21.5296C23.5277 22.0648 22.6675 22.0648 22.1369 21.5296C21.6064 20.9944 21.6064 20.1266 22.1369 19.5914L24.854 16.8503C25.3846 16.3151 26.2448 16.3151 26.7753 16.8503Z" fill="#184EFF"/>
<path fill-rule="evenodd" clip-rule="evenodd" d="M20.7784 12.7387C21.3089 12.2034 22.1691 12.2034 22.6997 12.7387L28.5414 18.632C30.349 20.4555 30.349 23.4065 28.5414 25.23L25.0092 28.7934C23.2016 30.617 20.2764 30.617 18.4689 28.7934L12.6271 22.9001C12.0966 22.3649 12.0966 21.4971 12.6271 20.9619C13.1577 20.4267 14.0178 20.4267 14.5484 20.9619L20.3901 26.8552C21.1366 27.6083 22.3414 27.6083 23.0879 26.8552L26.6201 23.2918C27.3666 22.5387 27.3666 21.3233 26.6201 20.5702L20.7784 14.6769C20.2478 14.1417 20.2478 13.2739 20.7784 12.7387Z" fill="#184EFF"/>
<path fill-rule="evenodd" clip-rule="evenodd" d="M21.034 1.53433C22.0071 0.552904 23.3268 0.00164175 24.7028 0.00181584C26.0787 0.00198992 27.3983 0.553586 28.3711 1.53526C29.344 2.51693 29.8904 3.84827 29.8902 5.23639C29.8901 6.62452 29.3433 7.95571 28.3702 8.93714L10.2379 27.2323L10.2363 27.2339C9.76383 27.7089 9.18305 28.0598 8.54486 28.2556L2.62688 30.066C2.27457 30.1728 1.90017 30.1815 1.54341 30.091C1.18664 30.0005 0.860802 29.8143 0.600462 29.5521C0.340126 29.2898 0.155005 28.9614 0.0647396 28.6017C-0.0255261 28.2419 -0.0175713 27.8642 0.0877627 27.5086L0.0894496 27.5029L1.88409 21.5383L1.8852 21.5347C2.08091 20.8907 2.43042 20.3052 2.90299 19.8295C2.90337 19.8291 2.90374 19.8287 2.90411 19.8283L21.034 1.53433ZM22.955 3.47281C22.9551 3.47273 22.955 3.47288 22.955 3.47281L4.82408 21.7679L4.82256 21.7694C4.66523 21.9277 4.54878 22.1224 4.4834 22.3366C4.48324 22.3371 4.48309 22.3377 4.48293 22.3382L3.05941 27.0694L7.75423 25.6331C7.96653 25.568 8.15977 25.4514 8.31707 25.2935C8.31739 25.2932 8.31676 25.2938 8.31707 25.2935L26.449 6.99886C26.9124 6.53142 27.1731 5.89719 27.1731 5.23605C27.1732 4.57491 26.913 3.94081 26.4496 3.47325C25.9863 3.00569 25.3578 2.74297 24.7024 2.74289C24.0472 2.74281 23.4185 3.00551 22.955 3.47281Z" fill="#184EFF"/>
<path fill-rule="evenodd" clip-rule="evenodd" d="M18.0614 4.51543C18.592 3.98021 19.4523 3.98021 19.9828 4.51543L25.417 9.99759C25.9475 10.5328 25.9475 11.4006 25.417 11.9358C24.8864 12.471 24.0261 12.471 23.4956 11.9358L18.0614 6.45367C17.5309 5.91844 17.5309 5.05066 18.0614 4.51543Z" fill="#184EFF"/>
</g>
<defs>
<clipPath id="clip0_7_8">
<rect width="30" height="31" fill="white"/>
</clipPath>
</defs>
</svg>
